<?xml version="1.0" encoding="UTF-8"?>
<svg id="Calque_1" data-name="Calque 1" xmlns="http://www.w3.org/2000/svg" viewBox="0 0 704.3 704.3">
  <path d="M269.6,258.8c3,.1,5.9,1.2,8.1,3.2,1.9,1.7,3.5,4.4,3.5,8.4v73.1h62.9v-165.2c0-23.8-9.2-39.2-26.4-55-11.3-10.3-26.5-18.5-46.5-18H19.3v67.7h251.3c4.2,0,8.1,2.5,9.6,6.5,0,.1,0,.2.1.3.9,2.8.9,5.9,0,8.7-.8,2.5-2.5,5.4-6.1,6.7-1,.4-2.2.5-3.3.5H95c-17.2,0-34,5.4-47.4,16.2-13.3,10.7-25.6,28-27.2,56.1,0,0-4.1,51.1,48.4,70.9,7.5,2.8,15.5,4.2,23.5,4.2h93.7c14.9,0,29.5-4.7,41.2-13.9,2.6-2.1,5.2-4.4,7.7-7.1,12.7-13.5,19.4-31.6,19.4-50.2,0,0-.9-13.9,15.3-13.2h0v.1ZM183.5,280h-88.4c-5.8,0-10.6-4.7-10.6-10.6s4.7-10.6,10.6-10.6h88.4c5.8,0,10.6,4.7,10.6,10.6s-4.7,10.6-10.6,10.6h0Z" fill="#fff"/>
  <path d="M440.6,105.4c33.5.4,51.5,16,61,30.7,7,10.8,10.3,23.5,10.3,36.4v96.8c.2,12.3,12.8,11.3,12.8,11.3,10.8-.3,11-11.3,11-11.3v-102.7c0-2.2,0-4.4.3-6.6,4-38.5,38.6-49.9,59.3-53.2,10-1.6,20.2-1.7,30.1.3,15.1,3,26.5,9.3,35.2,16.7,11,9.4,18,23.3,21.6,37,2.1,8.1,3,16.4,3,24.7v157.9h-63.1v-161.5c0-3.4-1.5-6.7-4.4-8.5-3.5-2.2-7-1.5-7-1.5h-1.8c-5.4.1-9.6,4.9-9.6,10.3v94.2c0,7.5-1,15.1-3.4,22.2-16.2,48.2-69.3,44.6-69.3,44.6-39.2,2.5-58.7-19.1-68.1-37-5.4-10.3-8-21.9-8-33.5v-89c0-5.3-4-9.8-9.3-10.3h-2.9c-5.2.4-9,5.1-9,10.3v159.5h-65.8v-168c0-5.5.6-11,1.7-16.3,0,0,12.1-55.5,68.5-53.7,2.4,0,4.9.1,7.3.2h-.4Z" fill="#fff"/>
  <path d="M19.8,362.9v67.6h246.7c3,0,6.1.7,8.7,2.3,0,0,.1,0,.2.1,7.6,4.8,5.4,16.6-3.5,18.3-.8.1-1.6.2-2.4.3H95.4c-10.6,0-21.1,2.2-30.6,6.7-17.9,8.4-40.9,26.9-42.4,66.9,0,0-3.7,45.8,35.3,66.3,10.2,5.4,21.6,7.8,33.1,7.8h253.3v-62.4H95.1c-4.4,0-8.4-2.6-10-6.7-.6-1.6-1-3.5-.9-5.6,0,0,0-3.2,2.6-6.1,1.9-2.2,4.8-3.3,7.8-3.3h176c6.8.3,44.2,0,63.3-36.2,11.5-21.7,11.6-47.4,3.2-70.3-6.5-17.8-22.2-36.2-52.5-43.4-7.3-1.7-14.8-2.5-22.3-2.5H19.8v.2Z" fill="#fff"/>
  <path d="M512.9,437.4c.4-5.3,4.9-9.3,10.1-9.3h162.1v-65.3h-160.2c-4.7,0-14.4-.2-19.1.8-16.2,3.3-23,8.6-31.8,16-15.2,12.9-23.6,32.1-23.6,52v7.5c0,1.2,0,2.4-.4,3.5-2.1,8.1-9.2,7.3-9.2,7.3-6.6,0-10.1-9-10.1-9v-78.1h-67.5v236.3h67.5v-86h177.8c10.1,0,11.6,11.6,11.6,11.6v74.4h65.1v-73.3c0-14-3.6-27.8-10.8-39.8-.5-.8-1-1.6-1.5-2.4-14.3-21.9-39-34.7-65.2-34.7h-84.5c-4.4,0-8.4-2.8-9.7-7-.7-2.4-.5-4.3-.5-4.3v-.3h0l-.1.1Z" fill="#fff"/>
</svg>