<?xml version="1.0" encoding="UTF-8"?>
<svg id="Calque_1" data-name="Calque 1" xmlns="http://www.w3.org/2000/svg" viewBox="0 0 704.33 704.33">
  <defs>
    <style>
      .cls-1 {
        fill: #f1c56b;
      }

      .cls-2 {
        fill: #fff;
      }
    </style>
  </defs>
  <circle class="cls-1" cx="352.17" cy="352.17" r="352.17"/>
  <g>
    <path class="cls-2" d="M290.23,282.13c2.22.1,4.42.88,6.05,2.39,1.4,1.3,2.64,3.29,2.65,6.28,0,6.84,0,54.87,0,54.87h47.21v-123.9c0-17.82-6.93-29.4-19.79-41.23-8.44-7.76-19.88-13.85-34.9-13.47H102.47v50.75h188.5c3.17,0,6.11,1.9,7.19,4.88.03.08.06.17.09.26.7,2.12.71,4.43.01,6.54-.62,1.88-1.91,4.05-4.61,5.05-.78.29-1.62.39-2.45.39h-131.94c-12.87,0-25.54,4.08-35.58,12.14-9.97,8-19.24,21.04-20.39,42.1,0,0-3.06,38.36,36.29,53.17,5.62,2.11,11.6,3.14,17.6,3.14h70.31c11.17,0,22.16-3.49,30.9-10.44,1.95-1.55,3.9-3.33,5.81-5.36,9.52-10.16,14.53-23.74,14.53-37.66,0,0-.65-10.44,11.47-9.89ZM225.61,298.03h-66.32c-4.37,0-7.92-3.54-7.92-7.92s3.54-7.92,7.92-7.92h66.32c4.37,0,7.92,3.54,7.92,7.92s-3.54,7.92-7.92,7.92Z"/>
    <path class="cls-2" d="M418.48,167.06c25.13.32,38.6,12,45.73,23.05,5.22,8.1,7.73,17.65,7.73,27.29v72.59c.17,9.23,9.61,8.48,9.61,8.48,8.09-.26,8.22-8.44,8.22-8.44v-77.03c0-1.64.03-3.29.2-4.93,2.99-28.85,28.97-37.4,44.5-39.93,7.47-1.22,15.12-1.25,22.55.21,11.33,2.22,19.91,6.97,26.37,12.51,8.25,7.08,13.5,17.47,16.24,27.77,1.61,6.04,2.24,12.3,2.24,18.55v118.46s-.01.03-.03.03h-47.34s-.03-.01-.03-.03v-121.11c0-2.52-1.15-5-3.28-6.34-2.61-1.65-5.22-1.13-5.22-1.13-.49-.05-.94-.06-1.38-.05-4.07.09-7.22,3.65-7.22,7.72v70.68c0,5.65-.75,11.3-2.55,16.66-12.15,36.12-51.98,33.46-51.98,33.46-29.38,1.88-44.02-14.35-51.05-27.72-4.07-7.73-6.02-16.4-6.02-25.14v-66.77c0-3.99-3.03-7.38-7.01-7.71-.66-.06-1.09-.05-1.09-.05-.36-.02-.71-.01-1.06.01-3.89.29-6.77,3.79-6.77,7.7v119.64s-.01.03-.03.03h-49.38s-.03-.01-.03-.03v-126.03c0-4.11.42-8.23,1.25-12.26,0,0,9.09-41.63,51.35-40.27,1.83.06,3.66.11,5.49.14Z"/>
    <path class="cls-2" d="M102.89,360.19v50.71h185.05c2.28,0,4.56.52,6.51,1.7.05.03.09.06.14.09,5.73,3.58,4.04,12.46-2.59,13.73-.57.11-1.17.18-1.83.19h-130.59c-7.93,0-15.8,1.62-22.98,4.99-13.43,6.3-30.65,20.2-31.78,50.19,0,0-2.75,34.36,26.51,49.77,7.63,4.02,16.22,5.88,24.84,5.88h189.97v-46.77h-186.8c-3.28,0-6.28-1.96-7.47-5.01-.46-1.19-.76-2.59-.7-4.2,0,0,0-2.42,1.94-4.61,1.46-1.64,3.62-2.48,5.82-2.48h129.47c.86,0,1.72.01,2.58.04,5.12.19,33.19-.07,47.52-27.12,8.62-16.27,8.68-35.52,2.41-52.7-4.86-13.34-16.67-27.19-39.41-32.59-5.48-1.3-11.12-1.84-16.75-1.84H102.89Z"/>
    <path class="cls-2" d="M472.7,416.12c.29-3.94,3.65-6.95,7.61-6.95h121.56v-48.99h-120.14c-3.53-.03-10.82-.12-14.29.59-12.16,2.48-17.25,6.43-23.83,12-11.42,9.65-17.74,24.05-17.74,39v5.6c0,.89-.07,1.78-.29,2.63-1.56,6.1-6.93,5.47-6.93,5.47-4.93,0-7.61-6.72-7.61-6.72v-58.56h-50.65v177.25h50.65v-64.51h133.34c7.59,0,8.67,8.67,8.67,8.67v55.84h48.81v-54.96c0-10.49-2.67-20.88-8.12-29.85-.37-.62-.76-1.22-1.14-1.81-10.7-16.44-29.28-26.04-48.9-26.04h-63.36c-3.29,0-6.29-2.08-7.25-5.23-.54-1.79-.41-3.24-.41-3.24,0-.07,0-.13.01-.19Z"/>
  </g>
</svg>