<?xml version="1.0" encoding="UTF-8"?>
<svg id="Télephone" xmlns="http://www.w3.org/2000/svg" viewBox="0 0 372.56 356.93">
  <defs>
    <style>
      .cls-1 {
        fill: #fff;
      }
    </style>
  </defs>
  <path class="cls-1" d="M28.1,36.95c-1.6,1.76-3.11,3.65-4.49,5.61C10.97,53.75.98,78.37,6.85,108.71c25.22,131.36,135.88,231.44,269.09,243.39,2.87.26,5.73.39,8.55.39,15.31,0,29.74-3.77,41.24-10.84,5.55-3.21,10.5-7.2,14.7-11.86l11.44-12.65c22.31-24.68,20.39-62.9-4.27-85.21l-19.31-17.46c-11.12-10.06-25.49-15.6-40.45-15.6-17.02,0-33.33,7.24-44.76,19.87l-11.43,12.64c-4.47,4.94-8.04,10.49-10.66,16.57-45.6-19.18-83.01-53.42-106.15-97.16,8.38-3.4,15.92-8.67,22.05-15.45l11.43-12.63c10.81-11.96,16.32-27.41,15.51-43.5-.8-16.09-7.82-30.91-19.78-41.73l-19.3-17.44c-11.12-10.05-25.48-15.59-40.45-15.59-17.04,0-33.36,7.23-44.77,19.85l-11.43,12.65ZM51.04,34.7c8.48-9.37,20.6-14.74,33.26-14.74,11.12,0,21.79,4.11,30.05,11.58l19.3,17.44c8.88,8.04,14.1,19.04,14.69,31,.6,11.96-3.49,23.44-11.52,32.32l-11.43,12.63h0c-5.49,6.07-12.5,10.51-20.28,12.86l-3.48,1.04c-2.19.66-3.98,2.24-4.88,4.34-.91,2.1-.85,4.49.17,6.53l1.62,3.26c25.32,50.85,68.35,90.34,121.16,111.19l3.01,1.18c1.98.78,4.18.71,6.12-.19,1.93-.9,3.4-2.55,4.07-4.57l1.02-3.04c1.98-5.87,5.09-11.18,9.25-15.77l11.44-12.64c8.49-9.38,20.61-14.76,33.26-14.76,11.11,0,21.78,4.12,30.05,11.59l19.3,17.46c18.33,16.58,19.75,44.98,3.18,63.31l-11.44,12.65c-3.12,3.46-6.81,6.44-11.14,8.94-10.97,6.73-25.33,9.7-40.46,8.32-126.37-11.33-231.33-106.27-255.25-230.87-5.06-26.12,4.45-45.31,12.08-51.84.25-.21.48-.44.7-.69l.53-.58c.23-.25.44-.52.63-.8,1.09-1.58,2.3-3.1,3.58-4.52l11.43-12.65Z"/>
</svg>